<svg width="25" height="25" viewBox="0 0 25 25" fill="none" xmlns="http://www.w3.org/2000/svg">
<path fill-rule="evenodd" clip-rule="evenodd" d="M1.04102 2.95658C1.04102 2.4488 1.24273 1.96182 1.60178 1.60276C1.96084 1.24371 2.44782 1.04199 2.9556 1.04199H22.041C22.2927 1.04158 22.5419 1.09081 22.7745 1.18686C23.0071 1.2829 23.2185 1.42388 23.3965 1.60172C23.5745 1.77956 23.7157 1.99077 23.812 2.22326C23.9083 2.45574 23.9578 2.70494 23.9577 2.95658V22.042C23.958 22.2937 23.9086 22.543 23.8124 22.7756C23.7163 23.0082 23.5752 23.2195 23.3973 23.3975C23.2194 23.5755 23.0081 23.7167 22.7755 23.813C22.543 23.9093 22.2937 23.9588 22.0421 23.9587H2.9556C2.70409 23.9587 2.45504 23.9091 2.22268 23.8128C1.99032 23.7165 1.77922 23.5754 1.60142 23.3975C1.42362 23.2196 1.28261 23.0084 1.18646 22.776C1.0903 22.5436 1.04088 22.2946 1.04102 22.043V2.95658ZM10.1118 9.7795H13.215V11.3378C13.6629 10.442 14.8087 9.63575 16.5306 9.63575C19.8316 9.63575 20.6139 11.4201 20.6139 14.6941V20.7587H17.2733V15.4399C17.2733 13.5753 16.8254 12.5232 15.6879 12.5232C14.1098 12.5232 13.4535 13.6576 13.4535 15.4399V20.7587H10.1118V9.7795ZM4.38268 20.616H7.72435V9.63575H4.38268V20.6149V20.616ZM8.20248 6.05449C8.20878 6.34061 8.15786 6.62511 8.05272 6.89128C7.94759 7.15746 7.79034 7.39995 7.59022 7.60453C7.39009 7.80911 7.15112 7.97165 6.88732 8.08263C6.62353 8.1936 6.34022 8.25076 6.05404 8.25076C5.76785 8.25076 5.48455 8.1936 5.22075 8.08263C4.95696 7.97165 4.71798 7.80911 4.51786 7.60453C4.31773 7.39995 4.16049 7.15746 4.05535 6.89128C3.95021 6.62511 3.8993 6.34061 3.9056 6.05449C3.91797 5.49288 4.14975 4.95844 4.55131 4.56563C4.95288 4.17281 5.49229 3.95285 6.05404 3.95285C6.61578 3.95285 7.1552 4.17281 7.55676 4.56563C7.95832 4.95844 8.19011 5.49288 8.20248 6.05449V6.05449Z" fill="#96BB7C"/>
</svg>
